<?xml version="1.0" encoding="UTF-8"?>
<svg version="1.1" xmlns="http://www.w3.org/2000/svg" width="170" height="170">
<path d="M0 0 C56.1 0 112.2 0 170 0 C170 56.1 170 112.2 170 170 C113.9 170 57.8 170 0 170 C0 113.9 0 57.8 0 0 Z " fill="#FDFDFD" transform="translate(0,0)"/>
<path d="M0 0 C0.70890381 0.19601807 1.41780762 0.39203613 2.14819336 0.59399414 C7.8747849 2.34769133 11.91519365 4.77927425 17.375 7.8125 C17.375 24.9725 17.375 42.1325 17.375 59.8125 C-4.405 59.8125 -26.185 59.8125 -48.625 59.8125 C-48.955 50.5725 -49.285 41.3325 -49.625 31.8125 C-50.945 31.4825 -52.265 31.1525 -53.625 30.8125 C-53.955 51.6025 -54.285 72.3925 -54.625 93.8125 C-52.15 93.3175 -52.15 93.3175 -49.625 92.8125 C-49.295 83.9025 -48.965 74.9925 -48.625 65.8125 C-26.845 65.8125 -5.065 65.8125 17.375 65.8125 C17.375 82.9725 17.375 100.1325 17.375 117.8125 C-1.70576596 127.35288298 -19.43401401 131.51746989 -40.1953125 125.1328125 C-50.21284196 121.27640594 -58.07528733 115.34945977 -65.625 107.8125 C-66.346875 107.10222656 -67.06875 106.39195312 -67.8125 105.66015625 C-80.52886888 92.34168657 -84.18514266 75.58580988 -83.8984375 57.78125 C-83.24369892 40.90066335 -75.33836098 27.54568054 -63.625 15.8125 C-62.91472656 15.090625 -62.20445313 14.36875 -61.47265625 13.625 C-55.85093294 8.25742331 -49.71447315 4.92157063 -42.625 1.8125 C-41.86703125 1.46960938 -41.1090625 1.12671875 -40.328125 0.7734375 C-27.34310151 -3.84262577 -13.18886005 -3.64738949 0 0 Z " fill="#FDFDFD" transform="translate(102.625,26.1875)"/>
<path d="M0 0 C2.32844543 2.26702881 2.32844543 2.26702881 2.92971802 4.98791504 C2.91861496 6.02716125 2.9075119 7.06640747 2.89607239 8.137146 C2.89569473 9.31806824 2.89531708 10.49899048 2.89492798 11.71569824 C2.86912155 12.98560608 2.84331512 14.25551392 2.81672668 15.56390381 C2.80965195 16.86781067 2.80257721 18.17171753 2.79528809 19.51513672 C2.77623619 22.97453079 2.72715414 26.432868 2.67176819 29.8918457 C2.62053481 33.42431076 2.5974912 36.95695242 2.57258606 40.48968506 C2.52168429 47.41639838 2.42382692 54.34021318 2.32844543 61.26702881 C13.21844543 60.93702881 24.10844543 60.60702881 35.32844543 60.26702881 C35.32844543 80.24896116 30.93421098 96.55757099 18.32844543 112.26702881 C17.5459845 113.25960693 16.76352356 114.25218506 15.95735168 115.27484131 C3.99844575 128.88631523 -14.70720219 138.18898975 -32.75041199 139.40740967 C-54.21581121 140.36328142 -73.76537605 135.07294409 -90.21061707 120.67718506 C-104.77686657 106.41150896 -114.42409708 87.21585912 -115.0275116 66.64691162 C-115.18345311 47.67002957 -109.67825 31.07297309 -97.67155457 16.26702881 C-96.88522644 15.27445068 -96.09889832 14.28187256 -95.28874207 13.25921631 C-72.11424353 -13.23580739 -29.63368306 -19.22263528 0 0 Z M-60.67155457 2.26702881 C-61.4952655 2.53386475 -62.31897644 2.80070068 -63.16764832 3.07562256 C-79.32690031 8.74774689 -92.04282646 22.29146554 -99.67155457 37.26702881 C-106.3431612 53.70432052 -106.98672327 71.48905604 -100.56999207 88.12249756 C-93.15644879 105.46062296 -80.05384929 119.06106751 -62.42155457 126.14202881 C-48.63159435 130.27901687 -35.00796811 130.94056857 -21.04655457 127.07952881 C-20.33765076 126.88351074 -19.62874695 126.68749268 -18.89836121 126.48553467 C-13.17176967 124.73183748 -9.13136091 122.30025456 -3.67155457 119.26702881 C-3.67155457 102.10702881 -3.67155457 84.94702881 -3.67155457 67.26702881 C-25.45155457 67.26702881 -47.23155457 67.26702881 -69.67155457 67.26702881 C-70.00155457 76.17702881 -70.33155457 85.08702881 -70.67155457 94.26702881 C-73.14655457 94.76202881 -73.14655457 94.76202881 -75.67155457 95.26702881 C-75.34155457 74.47702881 -75.01155457 53.68702881 -74.67155457 32.26702881 C-73.35155457 32.59702881 -72.03155457 32.92702881 -70.67155457 33.26702881 C-70.34155457 42.50702881 -70.01155457 51.74702881 -69.67155457 61.26702881 C-47.89155457 61.26702881 -26.11155457 61.26702881 -3.67155457 61.26702881 C-3.67155457 44.10702881 -3.67155457 26.94702881 -3.67155457 9.26702881 C-21.94800771 0.12880224 -40.76309431 -5.21078309 -60.67155457 2.26702881 Z " fill="#070707" transform="translate(123.67155456542969,24.73297119140625)"/>
<path d="M0 0 C7.59 0 15.18 0 23 0 C22.54820783 18.07168687 15.25261263 32.30326744 2.34765625 44.85546875 C1 46 1 46 0 46 C0 30.82 0 15.64 0 0 Z " fill="#FCFCFC" transform="translate(126,92)"/>
</svg>
